<svg width="38" height="38" viewBox="0 0 38 38" fill="none" xmlns="http://www.w3.org/2000/svg">
<rect width="38" height="38" rx="19" fill="#F4E2DE"/>
<path d="M10.2929 18.2929C9.90237 18.6834 9.90237 19.3166 10.2929 19.7071L16.6569 26.0711C17.0474 26.4616 17.6805 26.4616 18.0711 26.0711C18.4616 25.6805 18.4616 25.0474 18.0711 24.6569L12.4142 19L18.0711 13.3431C18.4616 12.9526 18.4616 12.3195 18.0711 11.9289C17.6805 11.5384 17.0474 11.5384 16.6569 11.9289L10.2929 18.2929ZM27 20C27.5523 20 28 19.5523 28 19C28 18.4477 27.5523 18 27 18V20ZM11 20H27V18H11V20Z" fill="#EE6C4E"/>
</svg>
