<svg width="35" height="35" viewBox="0 0 29 29" fill="none" xmlns="http://www.w3.org/2000/svg">
<g id="Group 7">
<circle id="Ellipse 9" cx="14.5" cy="14.5" r="14.5" fill="#F4E2DE"/>
<path id="Union" fill-rule="evenodd" clip-rule="evenodd" d="M23.028 14.7026C22.9923 14.7233 22.9571 14.7453 22.9218 14.7674C22.8435 14.8165 22.7651 14.8655 22.6812 14.8997C22.101 15.1373 21.5198 15.3743 20.9327 15.5946C20.7673 15.6565 20.7226 15.7427 20.7231 15.9102C20.7281 17.1301 20.7274 18.35 20.7267 19.5699V19.5705L20.7264 20.3024C20.7264 20.7414 20.6456 20.8244 20.2103 20.8244C15.5951 20.8249 10.9794 20.8249 6.36421 20.8244C5.92844 20.8244 5.84064 20.7355 5.84064 20.3067V11.9269C5.84064 11.4771 5.90905 11.3758 6.33135 11.2078C7.66562 10.6766 8.99989 10.1457 10.3342 9.61476L10.3349 9.61448L10.3398 9.61251L10.3405 9.61222C11.6764 9.08067 13.0123 8.54912 14.3482 8.0173C15.2949 7.64026 16.2414 7.26265 17.188 6.88504L17.1912 6.88378L17.1916 6.88359C17.8585 6.61756 18.5253 6.35153 19.1923 6.08569C19.5957 5.92517 19.7067 5.97311 19.8678 6.37602L20.7466 8.58294C21.4547 10.3614 22.1629 12.1398 22.8724 13.9177C22.9005 13.9883 22.9381 14.0552 22.9757 14.1221L22.9758 14.1221C22.9935 14.1537 23.0113 14.1853 23.028 14.2172V14.7026ZM6.54412 12.0297V20.1236H20.0369V12.0297H6.54412ZM22.303 14.3217L19.2984 6.7757C15.4993 8.28879 11.7287 9.79056 7.95809 11.2929C8.58024 11.3489 9.18676 11.35 9.79383 11.3467C9.84338 11.3467 9.89671 11.3273 9.94196 11.3042C10.0104 11.2693 10.0776 11.2314 10.1447 11.1936C10.263 11.1269 10.3812 11.0602 10.5059 11.0101C12.4272 10.2393 14.3506 9.47343 16.2739 8.70759L16.2742 8.70745L16.8955 8.46008C17.3177 8.29183 17.3199 8.2941 17.644 8.62086L17.6555 8.63245C18.0681 9.04883 18.5739 9.26321 19.1562 9.24221C19.4508 9.23143 19.6 9.3424 19.6981 9.6058C19.8654 10.0536 20.0464 10.4964 20.2272 10.939L20.2272 10.939L20.2272 10.939L20.2272 10.9391L20.3046 11.1286L20.3095 11.1406C20.3414 11.219 20.3842 11.3245 20.4436 11.3419C20.7199 11.4221 20.7275 11.6263 20.7269 11.852C20.7242 12.7769 20.7253 13.7017 20.7269 14.6266C20.7269 14.6867 20.7305 14.7467 20.7346 14.8162L20.7346 14.8164L20.7346 14.8164C20.7369 14.8554 20.7393 14.8973 20.7415 14.9439L20.8657 14.8944L20.8658 14.8943L20.8716 14.892C21.3543 14.6996 21.8125 14.517 22.3025 14.3212L22.303 14.3217ZM19.5229 11.0028L19.5228 11.0025C19.3931 10.6697 19.2695 10.3524 19.1346 10.04C19.1066 9.97586 18.9871 9.92199 18.9052 9.91553C18.2938 9.86382 17.7562 9.64189 17.3091 9.22497C17.1783 9.1027 17.0775 9.11293 16.9326 9.1711C15.755 9.64348 14.5764 10.1136 13.3978 10.5836L13.3966 10.5841L13.3953 10.5846C12.8625 10.7971 12.3298 11.0096 11.7971 11.2223C11.7596 11.2374 11.7233 11.2562 11.6716 11.283C11.6401 11.2994 11.603 11.3187 11.5563 11.3419H19.6555C19.6104 11.2272 19.5665 11.1147 19.5233 11.0039L19.5233 11.0038L19.5229 11.0028ZM13.2741 19.4648L11.9814 19.4649H11.9762H11.9762H11.9761C11.1162 19.4651 10.2564 19.4652 9.39633 19.4648C8.91881 19.4648 8.91745 19.4617 8.73321 19.0339L8.72786 19.0215C8.49624 18.4834 8.10787 18.0972 7.55467 17.906C7.28965 17.8144 7.18623 17.6609 7.18838 17.3905C7.19485 16.5195 7.19485 15.6484 7.18838 14.7774C7.18623 14.5076 7.28803 14.3546 7.55305 14.2609C8.13372 14.0556 8.54526 13.6527 8.74994 13.0683C8.84583 12.7941 9.00204 12.6982 9.28806 12.6988C11.9539 12.7063 14.6202 12.7063 17.286 12.6988C17.571 12.6982 17.7234 12.793 17.8214 13.0699C18.0272 13.6517 18.4387 14.0556 19.0205 14.2614C19.2704 14.3498 19.3776 14.4866 19.3744 14.7532C19.3647 15.642 19.3658 16.5313 19.3738 17.4201C19.376 17.6716 19.2833 17.8101 19.0388 17.8963C18.4382 18.1079 18.0148 18.5216 17.8096 19.1271C17.7212 19.3878 17.5742 19.4691 17.3135 19.4675C16.3144 19.4615 15.3157 19.4623 14.3168 19.4632H14.3167H14.3167H14.3166C13.9692 19.4635 13.6217 19.4637 13.2741 19.4637V19.4648ZM13.2763 18.7953C13.5691 18.7953 13.862 18.7951 14.1548 18.795H14.1549H14.1549H14.155C15.0922 18.7945 16.0292 18.794 16.9666 18.7985C17.126 18.799 17.2241 18.7694 17.2995 18.6089C17.5607 18.0541 17.9841 17.6544 18.5276 17.3705C18.6127 17.3258 18.6989 17.1901 18.7011 17.0947C18.7099 16.702 18.7097 16.309 18.7095 15.9161C18.7094 15.6354 18.7092 15.3548 18.7124 15.0742C18.714 14.9288 18.6725 14.8529 18.5362 14.7882C17.9733 14.521 17.565 14.0944 17.2769 13.5428C17.2348 13.4631 17.1104 13.3775 17.0237 13.3769C15.4876 13.3716 13.9515 13.3706 12.4154 13.3696C11.4645 13.369 10.5136 13.3684 9.56278 13.3667C9.41303 13.3667 9.34247 13.4216 9.27944 13.5525C9.01389 14.1052 8.59966 14.5189 8.04754 14.7839C7.9091 14.8502 7.87301 14.9315 7.87463 15.0737C7.88109 15.747 7.88325 16.4209 7.87301 17.0942C7.87032 17.2574 7.93442 17.3296 8.07178 17.3964C8.60612 17.656 9.01012 18.0584 9.26544 18.5927C9.34678 18.7624 9.44212 18.8007 9.61341 18.7996C10.4924 18.7949 11.3714 18.7953 12.2504 18.7957H12.2509C12.5929 18.7958 12.9348 18.796 13.2768 18.7958L13.2763 18.7953ZM11.2601 16.0858C11.2639 17.2078 12.1592 18.1052 13.2774 18.1084H13.2779C14.4064 18.1117 15.3211 17.2024 15.3194 16.0782C15.3178 14.9686 14.4064 14.0567 13.2963 14.054C12.1645 14.0507 11.2564 14.9573 11.2601 16.0858ZM13.2785 14.7311C14.0272 14.7251 14.6294 15.3236 14.6316 16.0761C14.6343 16.8297 14.0407 17.4346 13.293 17.4405C12.5583 17.4459 11.9356 16.8286 11.9313 16.0906C11.927 15.3489 12.5335 14.7364 13.2785 14.7311ZM17.0113 15.572C17.2805 15.5739 17.5268 15.8248 17.5209 16.0912C17.515 16.3654 17.2704 16.5965 16.9946 16.5889C16.7253 16.5814 16.5088 16.3595 16.5061 16.088C16.5034 15.8074 16.735 15.5703 17.0113 15.572ZM17.0108 15.572H17.0113H17.0108ZM16.9368 15.9503L16.9368 15.9503C16.8903 16.0053 16.8542 16.048 16.8535 16.0912C16.8531 16.1271 16.8992 16.1635 16.9453 16.1999C16.9656 16.216 16.9859 16.232 17.0022 16.248C17.0186 16.2311 17.0375 16.2148 17.0565 16.1985C17.1015 16.1598 17.1465 16.121 17.1579 16.074C17.1649 16.0443 17.1313 16.0048 17.0865 15.952L17.0865 15.952C17.0629 15.9243 17.0362 15.8929 17.0108 15.8575C16.9856 15.8925 16.9599 15.9229 16.9368 15.9503ZM9.58645 16.5884C9.8547 16.5766 10.0739 16.3417 10.0685 16.0729C10.0632 15.8052 9.83261 15.5747 9.56706 15.572C9.28803 15.5693 9.05856 15.8058 9.06287 16.0918C9.06772 16.3757 9.30473 16.6013 9.58645 16.5884ZM9.47861 15.9568C9.50057 15.9301 9.52489 15.9005 9.54713 15.8682C9.5736 15.8973 9.60183 15.9233 9.62728 15.9467C9.67639 15.9919 9.71513 16.0275 9.71088 16.0573C9.70408 16.1052 9.66372 16.1484 9.6233 16.1916C9.60602 16.2101 9.58874 16.2286 9.57406 16.2475C9.5569 16.2311 9.53721 16.2155 9.51749 16.1998C9.47098 16.1628 9.4243 16.1258 9.41031 16.0789C9.40175 16.0503 9.43565 16.0091 9.47861 15.9568Z" fill="#EE6C4E"/>
</g>
</svg>
