<svg width="29" height="29" viewBox="0 0 29 29" fill="none" xmlns="http://www.w3.org/2000/svg">
<g id="Group 7">
<circle id="Ellipse 9" cx="14.5" cy="14.5" r="14.5" fill="#F4E2DE"/>
<path id="Vector" d="M7.64561 21C7.04414 20.6542 6.92836 20.4191 7.03567 19.7151C7.12697 19.1187 7.21733 18.5222 7.3317 17.9299C7.46065 17.2618 7.85551 16.8039 8.49793 16.5702C9.74041 16.1183 10.9843 15.6693 12.2272 15.2189C12.463 15.1336 12.5576 14.6865 12.3647 14.5183C11.5472 13.8035 11.2775 12.8574 11.2432 11.8232C11.2295 11.4105 11.1622 11.0416 10.9062 10.7009C10.7805 10.5332 10.6784 10.3023 10.6737 10.0969C10.6572 9.40054 10.621 8.6938 10.717 8.00826C10.8718 6.90292 11.9039 6.03599 13.017 6.01432C14.1926 5.99123 15.3692 6.00113 16.5449 6.00913C17.0833 6.0129 17.4442 6.37711 17.4805 6.89915C17.4852 6.96794 17.5374 7.05841 17.5953 7.09374C18.1356 7.42685 18.4034 7.90414 18.3978 8.5402C18.393 9.04246 18.4175 9.54613 18.3874 10.0465C18.3723 10.2953 18.3046 10.5601 18.1888 10.7791C17.9191 11.2894 17.8113 11.8355 17.7243 12.3948C17.5981 13.2051 17.2927 13.9255 16.6696 14.4952C16.5825 14.5748 16.6155 14.7826 16.5863 14.9296C16.5463 15.1289 16.6757 15.1736 16.8249 15.2269C17.9888 15.6429 19.1437 16.0858 20.3156 16.4783C21.199 16.7742 21.6635 17.3575 21.7675 18.2729C21.8174 18.7139 21.9209 19.1483 22 19.5861V20.4341C21.8593 20.6909 21.6522 20.8761 21.3882 20.9995H7.64561V21ZM11.7458 10.9257C11.7397 10.9257 11.7331 10.9261 11.727 10.9266C11.7467 11.3803 11.7387 11.8374 11.7938 12.2869C11.8743 12.9432 12.0748 13.5755 12.5901 14.0212C12.9718 14.3515 13.4104 14.621 13.8415 14.8881C14.2006 15.111 14.6129 15.1416 14.9946 14.9706C15.7462 14.6337 16.431 14.1762 16.8371 13.4407C17.0475 13.0605 17.1873 12.6087 17.232 12.1761C17.3054 11.4694 17.2786 10.7523 17.2866 10.0394C17.2927 9.50231 17.0517 9.15648 16.5439 8.96754C16.1702 8.82855 15.7975 8.68343 15.4153 8.5746C15.2525 8.52795 15.0393 8.5091 14.8934 8.57554C14.2246 8.88038 13.529 8.93974 12.808 8.91383C12.2075 8.89216 11.7472 9.37557 11.7458 9.9843C11.7453 10.2981 11.7458 10.6119 11.7458 10.9257ZM13.8571 20.4973C13.0904 19.7957 12.3731 19.1399 11.6564 18.484C11.4072 18.2563 11.3498 17.9899 11.4841 17.6849C11.4884 17.6755 11.4756 17.659 11.462 17.6194C11.3316 17.6194 11.1919 17.6213 11.0516 17.6194C10.6252 17.6128 10.5424 17.479 10.7287 17.1026C10.8803 16.7968 11.0314 16.4915 11.2149 16.1211C10.2511 16.4788 9.34461 16.794 8.45699 17.1553C8.09083 17.3042 7.89693 17.6449 7.83104 18.0416C7.73221 18.6371 7.63902 19.2336 7.53454 19.8278C7.44559 20.3352 7.58631 20.51 8.10448 20.5105C9.92443 20.5105 11.7439 20.5105 13.5639 20.5105C13.6396 20.5105 13.7159 20.5043 13.8571 20.4977V20.4973ZM17.8193 16.1211C17.985 16.4566 18.1163 16.7223 18.2481 16.9881C18.5135 17.5214 18.4613 17.611 17.8758 17.6213C17.7652 17.6232 17.6542 17.6213 17.5214 17.6213C17.6789 17.9643 17.6283 18.2544 17.3694 18.4916C16.7101 19.0946 16.0507 19.6977 15.3899 20.2989C15.3311 20.3526 15.2591 20.3922 15.1937 20.4384C15.269 20.4987 15.2911 20.5081 15.3127 20.5081C17.2245 20.5091 19.1362 20.5119 21.0479 20.5081C21.4108 20.5072 21.5788 20.3003 21.5218 19.9427C21.4183 19.2935 21.3138 18.6437 21.1947 17.9968C21.1227 17.6044 20.9091 17.2802 20.5382 17.1332C19.6619 16.7855 18.7714 16.4731 17.8189 16.1216L17.8193 16.1211ZM17.7939 10.3325C17.8142 10.3339 17.8344 10.3353 17.8546 10.3367C17.8678 10.2326 17.8909 10.1285 17.8918 10.0244C17.8956 9.54565 17.8937 9.06649 17.8932 8.58732C17.8932 8.00355 17.6669 7.66573 17.1228 7.45983C16.9444 7.39246 16.879 7.28362 16.9167 7.09798C16.9995 6.68902 16.8625 6.51186 16.439 6.50951C15.3565 6.50338 14.274 6.49207 13.1921 6.51186C11.9797 6.53401 11.1669 7.38822 11.1617 8.60758C11.1603 8.96896 11.1617 9.32986 11.1617 9.69124C11.1617 9.82694 11.1617 9.96263 11.1617 10.0983C11.2253 9.96687 11.2191 9.83353 11.2417 9.70538C11.3806 8.92655 12.0399 8.36399 12.8344 8.3866C13.4923 8.40545 14.122 8.3442 14.7386 8.08223C14.9503 7.99224 15.2407 7.99319 15.468 8.05396C15.9504 8.18212 16.4234 8.35598 16.8842 8.54962C17.3878 8.76117 17.6899 9.16684 17.7873 9.70302C17.824 9.90656 17.7935 10.1224 17.7935 10.3325H17.7939ZM12.0959 15.8144C12.4767 16.5066 12.841 17.1699 13.2212 17.8616C13.537 17.4281 13.8368 17.0159 14.1423 16.5965C13.6726 16.2823 13.2259 15.9798 12.7746 15.6858C12.7177 15.6486 12.6259 15.6307 12.5609 15.6472C12.4122 15.6853 12.2701 15.7499 12.0959 15.8144ZM16.9553 15.7833C16.7119 15.732 16.4587 15.5911 16.3227 15.6655C15.8271 15.936 15.3702 16.2785 14.8882 16.6013C15.2017 17.0281 15.4996 17.4338 15.8135 17.8611C16.1947 17.1676 16.559 16.5047 16.9553 15.7838V15.7833ZM13.4523 19.4339C13.4631 19.423 13.4735 19.4127 13.4843 19.4018C12.9078 18.3535 12.3317 17.3047 11.7364 16.2215C11.5778 16.5414 11.4422 16.8156 11.285 17.1323C11.5349 17.1323 11.7293 17.1247 11.9232 17.1341C12.143 17.145 12.2409 17.3047 12.1552 17.5078C12.1039 17.6298 12.0418 17.749 11.9722 17.8616C11.9067 17.9667 11.9176 18.0364 12.0126 18.1217C12.496 18.5552 12.9732 18.9957 13.4523 19.4339ZM17.7492 17.1318C17.5854 16.8034 17.4513 16.5339 17.296 16.2224C16.6997 17.3089 16.1241 18.3573 15.5485 19.4061C15.9627 19.0866 16.3383 18.7436 16.7124 18.3992C16.8447 18.2776 17.0494 18.1693 17.0819 18.0237C17.1129 17.8847 16.9642 17.7047 16.8922 17.5436C16.7839 17.3005 16.8767 17.1421 17.1412 17.1332C17.3261 17.1271 17.512 17.1318 17.7487 17.1318H17.7492ZM14.524 20.1976C14.5748 20.1105 14.6068 20.0384 14.6538 19.9785C14.8426 19.7359 14.8449 19.473 14.7842 19.1842C14.7089 18.8251 14.6797 18.4567 14.6025 18.0981C14.5536 17.872 14.5837 17.6906 14.7268 17.5092C14.7663 17.4592 14.7574 17.3405 14.7268 17.2731C14.6816 17.1723 14.5974 17.0894 14.5183 16.9829C14.4072 17.1346 14.3164 17.259 14.2642 17.3301C14.3395 17.5728 14.4585 17.7693 14.4477 17.9587C14.4251 18.3544 14.3696 18.7563 14.2618 19.137C14.146 19.5465 14.2731 19.8631 14.5235 20.1976H14.524ZM16.1081 15.0351C16.0869 15.0158 16.0662 14.996 16.045 14.9767C15.0261 15.7885 14.0025 15.7781 12.9549 14.9998C12.9821 15.1119 13.0151 15.2085 13.0824 15.2556C13.5064 15.5501 13.9413 15.829 14.3649 16.124C14.4821 16.2055 14.5625 16.1979 14.676 16.1193C15.0939 15.8295 15.5222 15.5548 15.9392 15.2646C16.013 15.2132 16.0526 15.1129 16.1081 15.0351ZM13.9493 17.8687C13.466 18.3135 13.4481 18.4883 13.802 18.8317C13.8519 18.5071 13.9008 18.1877 13.9493 17.8687ZM15.092 17.8635C15.1391 18.1796 15.1866 18.4958 15.2365 18.8303C15.5834 18.4435 15.5702 18.3314 15.092 17.8635Z" fill="#EE6C4E"/>
</g>
</svg>
