<svg width="14" height="14" viewBox="0 0 13 13" fill="none" xmlns="http://www.w3.org/2000/svg">
<g id="Layer_1" clip-path="url(#clip0_608_960)">
<path id="Union" fill-rule="evenodd" clip-rule="evenodd" d="M1.21358 12.9775C1.23032 12.9852 1.24707 12.9929 1.26394 13.0002H6.68342C7.07015 12.7518 7.16918 12.3678 6.88147 12.1133C6.7633 12.0088 6.56728 11.9452 6.40632 11.9439C5.25339 11.9349 4.10046 11.9354 2.94753 11.936C2.5454 11.9362 2.14326 11.9364 1.74113 11.9362C1.29206 11.9358 1.08789 11.7391 1.08789 11.296C1.08667 8.10632 1.08667 4.91701 1.08789 1.72729C1.0883 1.28339 1.29124 1.08633 1.74032 1.08592C2.3198 1.08538 2.89928 1.08556 3.47876 1.08574C3.7685 1.08583 4.05824 1.08592 4.34798 1.08592C4.5363 1.08592 4.72462 1.08604 4.91295 1.08615C5.43084 1.08647 5.94873 1.08679 6.46663 1.0847C6.74007 1.08388 6.93771 0.943121 7.01147 0.710154C7.12802 0.340917 6.87618 0.012072 6.45522 0.00636007C5.96096 -0.000494669 5.46644 0.00100732 4.97208 0.00250883C4.84853 0.0028841 4.72498 0.00325934 4.60145 0.00350409C4.30214 0.00409962 4.00279 0.00306093 3.70345 0.00202227C2.97739 -0.000497001 2.25137 -0.00301615 1.52597 0.017784C0.666935 0.0426718 0.00269242 0.762378 0.00228491 1.62121C-0.000567669 4.87907 0.000247352 8.13651 0.0018774 11.394C0.00228491 12.0937 0.439951 12.6979 1.10134 12.9301C1.13951 12.9436 1.17653 12.9605 1.21358 12.9775ZM12.6991 7.061C12.7993 6.95915 12.8996 6.8573 13 6.75566H12.9996V6.26606C12.9706 6.235 12.942 6.20365 12.9134 6.17232C12.8511 6.10408 12.7889 6.03595 12.7233 5.97108C11.7041 4.9621 10.6841 3.95394 9.66331 2.9466C9.60585 2.88989 9.54391 2.83359 9.47504 2.79279C9.11887 2.58185 8.68039 2.83236 8.6698 3.24525C8.66491 3.44803 8.76964 3.5896 8.90452 3.7222C9.15476 3.96878 9.40463 4.21573 9.65449 4.46267C10.1008 4.9038 10.5471 5.34489 10.9955 5.78381C11.0298 5.81704 11.0779 5.83598 11.1261 5.85493C11.1489 5.8639 11.1718 5.87287 11.1931 5.88336L11.1206 5.97312H10.9034H5.07596C5.05776 5.97312 5.03954 5.973 5.02131 5.97288C4.95101 5.97241 4.88066 5.97194 4.81108 5.97842C4.4977 6.00739 4.27805 6.31461 4.34896 6.62061C4.41539 6.90621 4.61018 7.04697 4.95371 7.04697C6.94358 7.04778 8.93386 7.04778 10.9237 7.04778H11.1291C11.1334 7.05861 11.1378 7.06944 11.1422 7.08027C11.1466 7.09106 11.1509 7.10186 11.1552 7.11266C11.1347 7.12895 11.1137 7.14465 11.0927 7.16034C11.0485 7.19338 11.0043 7.22639 10.9653 7.26484C10.2872 7.93273 9.61074 8.60184 8.93468 9.27137L8.93112 9.27488C8.8744 9.33086 8.81675 9.38776 8.77005 9.4517C8.6209 9.65652 8.63964 9.94334 8.80835 10.1286C8.98684 10.3244 9.26925 10.3648 9.49338 10.2196C9.56062 10.1755 9.62011 10.1176 9.67798 10.0604C10.4429 9.30645 11.2078 8.55248 11.9698 7.79605C12.2148 7.55308 12.4569 7.30706 12.6991 7.061Z" fill="#EE6C4E"/>
</g>
<defs>
<clipPath id="clip0_608_960">
<rect width="13" height="13" fill="white"/>
</clipPath>
</defs>
</svg>
